#!OML:ASF Y:\EmotionMaleHayes\Project 1\Capture day 1\Session 1\Male1.ASF
:FULLY-SPECIFIED
:DEGREES
1319
root 12.5704 17.0143 -2.5587 358.176 -35.8688 713.815
lowerback 10.9356 2.33826 6.04444
upperback 2.93875 3.77101 1.49123
thorax -2.75578 1.8355 -2.32333
lowerneck -19.6123 -3.30065 -0.112452
upperneck 27.3779 -5.41822 1.85474
head 12.3809 -2.21167 -0.169281
rclavicle 2.10836e-014 -2.28602e-014
rhumerus -15.6339 7.13349 -73.4046
rradius 44.9856
rwrist -4.71114
rhand -13.4297 -33.2944
rfingers 7.12502
rthumb 12.679 -62.8895
lclavicle 2.10836e-014 -2.28602e-014
lhumerus -42.0267 6.4207 72.9055
lradius 18.6597
lwrist -22.6371
lhand -10.5388 -25.1996
lfingers 7.12502
lthumb 15.4648 4.20178
rfemur 15.1674 -0.228549 26.5708
rtibia 8.14267
rfoot -19.6774 3.89722
rtoes -4.46435
lfemur -21.2276 11.439 -12.1532
ltibia 44.0607
lfoot -8.62618 2.0957
ltoes 1.82177
1320
root 12.4761 16.9965 -2.42098 358.27 -36.3069 713.643
lowerback 10.9688 2.5169 6.25703
upperback 2.93027 4.0323 1.46681
thorax -2.74415 1.96449 -2.49935
lowerneck -19.7221 -3.37884 -0.123069
upperneck 27.4323 -5.51034 1.79263
head 12.424 -2.25934 -0.208653
rclavicle -1.17159e-014 1.68967e-014
rhumerus -15.0993 7.52114 -73.025
rradius 45.4845
rwrist -4.94815
rhand -12.9548 -33.5187
rfingers 7.12502
rthumb 13.1368 -63.0849
lclavicle -1.17159e-014 1.68967e-014
lhumerus -42.6483 5.73426 72.9722
lradius 19.1753
lwrist -20.2042
lhand -10.7661 -25.0248
lfingers 7.12502
lthumb 15.2458 4.39341
rfemur 16.1114 -0.405282 26.5085
rtibia 7.62286
rfoot -19.9376 4.44351
rtoes -5.82191
lfemur -21.2232 11.5155 -11.9219
ltibia 40.7852
lfoot -8.71586 2.69021
ltoes 1.99348
1321
root 12.3824 16.9776 -2.27917 358.294 -36.7402 713.657
lowerback 10.9608 2.69986 6.33409
upperback 2.90169 4.28134 1.38699
thorax -2.73592 2.08791 -2.65435
lowerneck -19.7137 -3.43105 -0.194156
upperneck 27.3358 -5.57004 1.84132
head 12.3885 -2.28805 -0.186984
rclavicle -1.15693e-013 2.04748e-014
rhumerus -14.6411 7.8607 -72.697
rradius 45.9977
rwrist -5.15607
rhand -13.0961 -32.9033
rfingers 7.12502
rthumb 13.0005 -62.4782
lclavicle -1.15693e-013 2.04748e-014
lhumerus -43.2725 5.10278 73.0376
lradius 19.655
lwrist -18.1927
lhand -11.0597 -24.7346
lfingers 7.12502
lthumb 14.963 4.70491
rfemur 16.9304 -0.79105 26.1228
rtibia 7.29405
rfoot -20.1835 5.28662
rtoes -6.98668
lfemur -21.0786 11.5029 -11.8365
ltibia 37.2404
lfoot -8.71759 3.23984
ltoes 1.3308
1322
root 12.2924 16.9516 -2.13995 358.701 -37.043 713.278
lowerback 10.8695 2.78002 6.73311
upperback 2.80366 4.42912 1.379
thorax -2.74291 2.15785 -2.89822
lowerneck -19.6147 -3.36783 -0.161496
upperneck 27.0876 -5.48026 1.85952
head 12.2683 -2.24747 -0.166422
rclavicle 8.24335e-015 1.21259e-014
rhumerus -14.196 8.29623 -72.4953
rradius 46.3992
rwrist -5.5099
rhand -13.314 -32.3462
rfingers 7.12502
rthumb 12.7905 -61.9344
lclavicle 8.24335e-015 1.21259e-014
lhumerus -44.0142 4.3297 73.1737
lradius 20.2338
lwrist -16.1829
lhand -11.1879 -24.9681
lfingers 7.12502
lthumb 14.8394 4.48048
rfemur 17.5931 -1.02791 26.225
rtibia 6.86592
rfoot -20.352 5.93163
rtoes -6.50578
lfemur -21.1731 11.4116 -11.4409
ltibia 33.7182
lfoot -8.6419 3.92483
ltoes -0.248945
1323
root 12.2025 16.9194 -2.00104 359.365 -37.2753 712.614
lowerback 10.7158 2.80708 7.29283
upperback 2.67286 4.52413 1.50603
thorax -2.75165 2.1992 -3.08125
lowerneck -19.5498 -3.2199 -0.172035
upperneck 26.889 -5.23842 1.81675
head 12.1723 -2.15038 -0.13825
rclavicle -4.63541e-014 2.68359e-015
rhumerus -13.712 8.61185 -72.2468
rradius 46.6937
rwrist -5.82187
rhand -13.3619 -31.7605
rfingers 7.12502
rthumb 12.7443 -61.3516
lclavicle -4.63541e-014 2.68359e-015
lhumerus -44.825 4.00925 73.2005
lradius 20.7894
lwrist -14.7395
lhand -11.3299 -25.1327
lfingers 7.12502
lthumb 14.7027 4.32593
rfemur 18.1334 -1.07463 26.7215
rtibia 6.48299
rfoot -20.5078 6.3941
rtoes -5.0886
lfemur -21.3508 11.1259 -10.7506
ltibia 30.2091
lfoot -8.54698 4.56728
ltoes -0.278347
